<?xml version="1.0" encoding="utf-8"?>
<!-- Generator: Adobe Illustrator 24.0.3, SVG Export Plug-In . SVG Version: 6.00 Build 0)  -->
<svg version="1.1" id="Layer_1" xmlns="http://www.w3.org/2000/svg" xmlns:xlink="http://www.w3.org/1999/xlink" x="0px" y="0px"
	 viewBox="0 0 603.18 208.02" style="enable-background:new 0 0 603.18 208.02;" xml:space="preserve">
<style type="text/css">
	.st0{fill:#414042;}
	.st1{fill:#939598;}
	.st2{fill:#A11E22;}
	.st3{fill:url(#SVGID_1_);}
	.st4{fill:#FFFFFF;}
</style>
<g>
	<g>
		<path class="st0" d="M241.98,115.58c-0.8,1.78-2.04,3.59-3.73,5.45c-1.69,1.86-3.82,2.79-6.37,2.79c-1.71,0-3-0.42-3.86-1.27
			c-0.86-0.85-1.29-1.85-1.29-3.01c0-1.18,0.38-2.83,1.13-4.93l3.95-10.8c0.39-0.98,0.58-1.64,0.58-1.99c0-0.22-0.09-0.43-0.27-0.61
			c-0.18-0.18-0.39-0.28-0.61-0.28c-0.69,0-1.45,0.54-2.28,1.62c-0.83,1.08-1.44,2.05-1.85,2.91h-2.69c1.2-2.69,2.77-4.78,4.7-6.26
			c1.93-1.48,3.85-2.22,5.77-2.22c1.35,0,2.46,0.33,3.35,0.99c0.89,0.66,1.33,1.54,1.33,2.65c0,1.16-0.23,2.34-0.67,3.52
			l-4.77,12.82c-0.33,0.88-0.49,1.59-0.49,2.14c0,0.24,0.1,0.49,0.29,0.72c0.19,0.23,0.4,0.35,0.63,0.35c0.61,0,1.24-0.33,1.9-0.98
			c0.65-0.65,1.47-1.86,2.45-3.61H241.98z M244.24,84.63c0,1.1-0.39,2.05-1.18,2.83c-0.79,0.79-1.71,1.18-2.77,1.18
			c-1.14,0-2.1-0.39-2.86-1.18c-0.77-0.79-1.15-1.73-1.15-2.83c0-1.06,0.38-1.98,1.15-2.77c0.77-0.79,1.72-1.18,2.86-1.18
			c0.73,0,1.4,0.18,2,0.54c0.6,0.36,1.08,0.83,1.42,1.41C244.07,83.21,244.24,83.88,244.24,84.63z"/>
		<path class="st0" d="M277.21,114.9c-0.57,1.08-1.36,2.27-2.37,3.55c-1.01,1.29-2.27,2.42-3.78,3.41
			c-1.51,0.99-3.13,1.48-4.87,1.48c-1.51,0-2.7-0.37-3.58-1.1c-0.88-0.74-1.32-1.7-1.32-2.91c0-0.94,0.25-2.21,0.77-3.83l2.23-7.38
			c0.63-2,0.95-3.38,0.95-4.13c0-0.45-0.14-0.86-0.41-1.22c-0.28-0.37-0.66-0.55-1.15-0.55c-1.1,0-2.45,0.93-4.04,2.79
			c-1.59,1.86-3.21,4.37-4.85,7.53c-1.64,3.16-3.07,6.62-4.27,10.38h-7.28l5.54-17.93c0.49-1.8,0.73-2.84,0.73-3.12
			c0-0.25-0.06-0.49-0.18-0.75c-0.12-0.25-0.36-0.38-0.7-0.38c-0.8,0-1.56,0.5-2.28,1.5c-0.72,1-1.34,2.09-1.85,3.28h-2.57
			c0.77-2.18,1.97-4.15,3.58-5.91c1.61-1.75,3.66-2.63,6.15-2.63c1.59,0,2.78,0.43,3.57,1.29c0.79,0.86,1.18,1.76,1.18,2.72
			c0,0.53-0.11,1.34-0.34,2.42c-0.22,1.08-0.48,2.09-0.76,3.03l-1.07,3.15c2.53-3.9,4.91-6.97,7.13-9.23
			c2.22-2.25,4.69-3.38,7.41-3.38c1.57,0,2.71,0.45,3.43,1.36c0.71,0.91,1.07,1.89,1.07,2.95c0,0.65-0.25,1.89-0.73,3.7l-3.21,10.65
			c-0.37,1.33-0.55,2.25-0.55,2.79c0,0.2,0.07,0.4,0.2,0.58c0.13,0.18,0.31,0.27,0.54,0.27c0.57,0,1.3-0.4,2.19-1.21
			c0.89-0.81,1.71-1.86,2.46-3.17H277.21z"/>
		<path class="st0" d="M305.28,102.05c0,0.84-0.26,1.8-0.77,2.89c-0.51,1.09-1.44,2.25-2.8,3.47c-1.36,1.22-3.29,2.31-5.81,3.24
			c-2.52,0.94-5.69,1.58-9.5,1.93l-0.73,0.06c-0.16,0.82-0.24,1.57-0.24,2.26c0,1.51,0.36,2.6,1.09,3.26
			c0.72,0.66,1.78,0.99,3.17,0.99c3.06,0,5.99-1.65,8.78-4.96h3.24c-1.27,1.94-3.18,3.86-5.75,5.75c-2.57,1.9-5.62,2.85-9.15,2.85
			c-2.45,0-4.54-0.66-6.29-1.97c-1.74-1.32-2.62-3.25-2.62-5.8c0-3.12,0.87-6.16,2.6-9.11c1.73-2.95,4.1-5.34,7.1-7.19
			c3-1.85,6.26-2.77,9.79-2.77c2.84,0,4.86,0.48,6.08,1.44C304.68,99.37,305.28,100.58,305.28,102.05z M298.82,101.93
			c0-0.67-0.23-1.29-0.7-1.85c-0.47-0.56-1.11-0.84-1.93-0.84c-1.43,0-2.74,0.49-3.93,1.48c-1.19,0.99-2.2,2.16-3.02,3.5
			c-0.82,1.35-1.48,2.71-2,4.1c-0.52,1.39-0.84,2.24-0.96,2.57c4.14-0.69,7.27-1.87,9.38-3.52
			C297.77,105.72,298.82,103.9,298.82,101.93z"/>
		<path class="st0" d="M353.63,102.17c0,2.22-0.49,4.58-1.47,7.06c-0.98,2.48-2.34,4.84-4.07,7.08c-1.73,2.25-3.72,4.05-5.95,5.43
			c-2.23,1.38-4.51,2.07-6.81,2.07c-3.29,0-5.64-1.67-7.07-5.02c-1.78,1.18-3.8,2.32-6.06,3.4c-2.26,1.08-4.49,1.62-6.67,1.62
			c-1.86,0-3.47-0.58-4.84-1.73c-1.37-1.15-2.05-2.75-2.05-4.79c0-1.33,0.26-2.54,0.8-3.63c0.53-1.09,1.22-2.08,2.07-2.97
			c0.85-0.89,2.01-1.97,3.47-3.26c0.53-0.45,1.13-1.02,1.79-1.71c0.66-0.69,1.07-1.15,1.22-1.36c0.15-0.21,0.38-0.57,0.67-1.06
			c0.3-0.49,0.52-0.89,0.69-1.19c-0.78,0.43-1.46,0.78-2.05,1.04c-0.59,0.27-1.22,0.4-1.9,0.4c-0.9,0-1.9-0.3-3-0.89
			c-0.88-0.45-1.53-0.67-1.96-0.67c-0.84,0-1.46,0.6-1.87,1.8h-2.57c1.49-4.55,3.58-6.82,6.27-6.82c1.25,0,2.76,0.73,4.56,2.2
			c0.71,0.53,1.35,0.79,1.9,0.79c0.51,0,0.89-0.16,1.13-0.47s0.47-0.8,0.67-1.45c0.2-0.71,0.64-1.07,1.32-1.07
			c0.84,0,1.26,0.42,1.26,1.25c0,0.98-0.45,2.39-1.33,4.22c-0.89,1.84-1.6,3.14-2.13,3.92c-0.82,1.41-1.46,2.53-1.94,3.37
			c-0.48,0.84-0.86,1.59-1.15,2.26c-0.29,0.67-0.51,1.34-0.67,2.01c-0.17,0.66-0.25,1.32-0.25,1.97c0,1.2,0.36,2.1,1.09,2.68
			c0.72,0.58,1.56,0.87,2.49,0.87c2.59,0,5.39-1.08,8.39-3.24c-0.24-1.41-0.37-2.48-0.37-3.21c0-1.37,0.22-2.96,0.67-4.78
			c0.45-1.82,1.1-3.6,1.94-5.34c0.85-1.75,1.86-3.18,3.04-4.3c1.18-1.12,2.49-1.68,3.92-1.68c1.2,0,2.16,0.53,2.88,1.59
			c0.71,1.06,1.07,2.22,1.07,3.49c0,4-2.34,8.09-7.01,12.27c1.14,3.22,2.94,4.83,5.39,4.83c1.73,0,3.33-0.65,4.79-1.96
			c1.46-1.3,2.61-2.92,3.46-4.83c0.85-1.92,1.27-3.72,1.27-5.42c0-0.94-0.29-2.55-0.86-4.84c-0.12-0.49-0.18-0.99-0.18-1.5
			c0-1.16,0.29-2.06,0.87-2.69c0.58-0.63,1.25-0.95,2-0.95c0.92,0,1.67,0.47,2.25,1.41C353.34,99.31,353.63,100.58,353.63,102.17z
			 M338.36,102.11c0-0.63-0.16-1.21-0.49-1.73c-0.33-0.52-0.79-0.78-1.41-0.78c-1.1,0-2.02,0.8-2.74,2.4
			c-0.73,1.6-1.09,3.63-1.09,6.08c0,1.18,0.12,2.39,0.37,3.61c1.33-1.33,2.55-2.8,3.67-4.42
			C337.79,105.64,338.36,103.92,338.36,102.11z"/>
		<path class="st0" d="M379.94,102.17c0,0.84-0.28,1.57-0.84,2.2c-0.56,0.63-1.32,0.95-2.28,0.95c-0.73,0-1.31-0.14-1.73-0.43
			c-0.42-0.29-0.75-0.68-0.98-1.19c-0.23-0.51-0.53-1.27-0.87-2.27c-0.2-0.69-0.53-1.23-0.96-1.62c-0.44-0.39-1.25-0.58-2.43-0.58
			c-1.06,0-2.02,0.27-2.86,0.83c-0.85,0.55-1.27,1.28-1.27,2.17c0,0.61,0.17,1.19,0.52,1.75c0.35,0.55,0.77,1.07,1.27,1.56
			c0.5,0.49,1.28,1.18,2.34,2.08c2,1.63,3.45,3.01,4.36,4.13c0.91,1.12,1.36,2.51,1.36,4.16c0,1.35-0.39,2.62-1.16,3.83
			c-0.78,1.2-2.06,2.18-3.86,2.94c-1.8,0.75-4.09,1.13-6.89,1.13c-4.02,0-6.84-0.74-8.48-2.22c-1.63-1.48-2.45-2.91-2.45-4.3
			c0-0.92,0.32-1.73,0.95-2.42c0.63-0.69,1.47-1.04,2.51-1.04c2.08,0,3.27,1.34,3.58,4.01c0.14,1.14,0.46,2.04,0.96,2.71
			c0.5,0.67,1.53,1,3.11,1c1.37,0,2.49-0.35,3.37-1.04c0.88-0.69,1.32-1.58,1.32-2.66c0-0.57-0.15-1.13-0.44-1.68
			c-0.3-0.55-0.92-1.22-1.85-2.02c-1.65-1.39-3.02-2.61-4.09-3.67c-1.07-1.06-1.88-2.08-2.43-3.06c-0.55-0.98-0.83-2.01-0.83-3.09
			c0-0.96,0.32-2,0.95-3.12c0.63-1.12,1.83-2.11,3.58-2.95c1.75-0.85,4.13-1.27,7.13-1.27c1.84,0,3.39,0.17,4.65,0.5
			c1.27,0.34,2.24,0.76,2.92,1.29c0.68,0.52,1.16,1.07,1.42,1.65C379.81,100.99,379.94,101.58,379.94,102.17z"/>
		<path class="st0" d="M408.88,107.74c0,2.04-0.4,4.03-1.21,5.97c-0.81,1.94-1.97,3.67-3.5,5.2c-1.53,1.53-3.32,2.73-5.36,3.6
			c-2.04,0.87-4.29,1.3-6.73,1.3c-2.39,0-4.49-0.46-6.3-1.39c-1.82-0.93-3.22-2.23-4.22-3.92c-1-1.68-1.5-3.6-1.5-5.74
			c0-2.73,0.75-5.33,2.26-7.77c1.51-2.45,3.57-4.4,6.17-5.85c2.6-1.45,5.41-2.17,8.43-2.17c2.51,0,4.67,0.5,6.49,1.48
			c1.82,0.99,3.18,2.31,4.1,3.96C408.43,104.07,408.88,105.84,408.88,107.74z M401.63,105.63c0-1.9-0.4-3.39-1.21-4.47
			c-0.81-1.08-1.99-1.62-3.57-1.62c-1.53,0-2.9,0.57-4.1,1.71c-1.2,1.14-2.2,2.58-3,4.3c-0.8,1.72-1.4,3.46-1.81,5.2
			c-0.41,1.75-0.61,3.25-0.61,4.51c0,1.75,0.4,3.19,1.19,4.3c0.8,1.11,1.92,1.67,3.37,1.67c1.61,0,3.04-0.56,4.28-1.68
			c1.25-1.12,2.27-2.54,3.08-4.27c0.81-1.72,1.4-3.47,1.79-5.25C401.44,108.26,401.63,106.79,401.63,105.63z"/>
		<path class="st0" d="M445.1,115.21c-0.84,2.02-2.05,3.96-3.63,5.81c-1.58,1.86-3.72,2.79-6.41,2.79c-1.67,0-2.85-0.45-3.54-1.35
			c-0.68-0.9-1.03-1.94-1.03-3.12c0-0.51,0.1-1.18,0.29-2.02c0.19-0.84,0.44-1.77,0.75-2.79l1.01-3.46
			c-2.18,3.55-4.43,6.56-6.75,9.03c-2.32,2.47-4.89,3.7-7.73,3.7c-1.45,0-2.56-0.42-3.34-1.25c-0.78-0.83-1.16-1.83-1.16-2.97
			c0-1.08,0.29-2.54,0.86-4.38l3.09-10.1c0.41-1.22,0.61-2.1,0.61-2.63c0-0.25-0.08-0.49-0.23-0.75c-0.15-0.25-0.41-0.38-0.78-0.38
			c-1.21,0-2.72,1.43-4.56,4.29h-2.81c1.39-2.22,2.93-4.17,4.64-5.85c1.7-1.67,3.83-2.51,6.38-2.51c1.16,0,2.23,0.31,3.2,0.93
			c0.97,0.62,1.45,1.78,1.45,3.47c0,1-0.13,1.9-0.4,2.69l-2.51,8.14c-0.57,1.88-0.86,3.23-0.86,4.07c0,0.45,0.14,0.88,0.41,1.29
			c0.28,0.41,0.66,0.61,1.15,0.61c0.96,0,2.14-0.73,3.55-2.19c1.41-1.46,2.94-3.73,4.61-6.83c1.66-3.09,3.29-6.96,4.88-11.61h7.29
			l-5.72,18.67c-0.37,1.33-0.55,2.12-0.55,2.39c0,0.25,0.1,0.5,0.29,0.75c0.19,0.25,0.4,0.38,0.63,0.38c0.75,0,1.48-0.51,2.17-1.53
			c0.69-1.02,1.32-2.12,1.87-3.3H445.1z"/>
		<path class="st0" d="M473.06,100.98c0,1.29-0.36,2.42-1.07,3.41c-0.71,0.99-1.61,1.49-2.69,1.49c-0.92,0-1.82-0.54-2.69-1.62
			c-0.49-0.63-0.97-0.95-1.44-0.95c-0.55,0-1.31,0.52-2.26,1.55c-0.96,1.03-1.94,2.4-2.95,4.12c-1.01,1.71-2,3.68-2.98,5.89
			c-0.98,2.21-1.83,4.48-2.54,6.81l-0.37,1.26h-7.19l4.8-17.17c0.51-1.65,0.76-2.81,0.76-3.46c0-0.25-0.07-0.48-0.21-0.72
			c-0.14-0.23-0.37-0.35-0.67-0.35c-0.8,0-1.6,0.56-2.42,1.67c-0.82,1.11-1.43,2.13-1.84,3.04h-2.82c1.18-2.37,2.39-4.2,3.63-5.49
			c1.23-1.3,2.43-2.2,3.58-2.71c1.15-0.51,2.2-0.76,3.14-0.76c1.63,0,2.69,0.51,3.17,1.53c0.48,1.02,0.72,2.02,0.72,3
			c0,1.77-0.57,4.57-1.71,8.39c1.16-2,2.12-3.6,2.86-4.8c0.74-1.2,1.63-2.45,2.66-3.73c1.03-1.29,2.12-2.34,3.27-3.15
			c1.15-0.82,2.28-1.22,3.38-1.22c1.57,0,2.61,0.44,3.12,1.33C472.8,99.19,473.06,100.08,473.06,100.98z"/>
		<path class="st0" d="M497.79,103.36c0,1.25-0.36,2.29-1.09,3.12c-0.72,0.84-1.68,1.25-2.86,1.25c-0.88,0-1.59-0.24-2.13-0.73
			c-0.54-0.49-0.81-1.12-0.81-1.9c0-0.45,0.08-0.99,0.25-1.62c0.18-0.55,0.28-1.05,0.28-1.5c0-0.96-0.32-1.61-0.96-1.94
			c-0.64-0.34-1.27-0.5-1.88-0.5c-1.8,0-3.47,0.97-5.02,2.92c-1.55,1.95-2.78,4.24-3.69,6.89c-0.91,2.64-1.36,4.81-1.36,6.5
			c0,1.86,0.44,3.04,1.33,3.55c0.89,0.51,1.8,0.76,2.74,0.76c1.84,0,3.51-0.49,5.02-1.48c1.51-0.99,2.79-2.13,3.83-3.41h3.31
			c-1.45,2.18-3.48,4.15-6.09,5.91c-2.61,1.75-5.53,2.63-8.75,2.63c-2.84,0-5.03-0.7-6.58-2.11c-1.55-1.41-2.33-3.32-2.33-5.72
			c0-2.84,0.82-5.75,2.45-8.74c1.63-2.99,3.9-5.45,6.79-7.38c2.9-1.93,6.1-2.89,9.61-2.89c1.29,0,2.41,0.17,3.38,0.52
			c0.97,0.35,1.8,0.82,2.5,1.42c0.69,0.6,1.21,1.29,1.56,2.07C497.61,101.75,497.79,102.55,497.79,103.36z"/>
		<path class="st0" d="M524.89,102.05c0,0.84-0.26,1.8-0.77,2.89c-0.51,1.09-1.44,2.25-2.8,3.47c-1.36,1.22-3.29,2.31-5.81,3.24
			c-2.52,0.94-5.69,1.58-9.5,1.93l-0.74,0.06c-0.16,0.82-0.24,1.57-0.24,2.26c0,1.51,0.36,2.6,1.09,3.26
			c0.72,0.66,1.78,0.99,3.17,0.99c3.06,0,5.99-1.65,8.78-4.96h3.24c-1.27,1.94-3.18,3.86-5.75,5.75c-2.57,1.9-5.62,2.85-9.15,2.85
			c-2.45,0-4.54-0.66-6.29-1.97c-1.75-1.32-2.62-3.25-2.62-5.8c0-3.12,0.87-6.16,2.6-9.11c1.73-2.95,4.1-5.34,7.1-7.19
			c3-1.85,6.26-2.77,9.79-2.77c2.84,0,4.86,0.48,6.08,1.44C524.28,99.37,524.89,100.58,524.89,102.05z M518.43,101.93
			c0-0.67-0.24-1.29-0.71-1.85c-0.47-0.56-1.11-0.84-1.93-0.84c-1.43,0-2.74,0.49-3.93,1.48c-1.19,0.99-2.2,2.16-3.01,3.5
			c-0.82,1.35-1.48,2.71-2,4.1c-0.52,1.39-0.84,2.24-0.96,2.57c4.14-0.69,7.27-1.87,9.38-3.52
			C517.37,105.72,518.43,103.9,518.43,101.93z"/>
		<path class="st1" d="M523.66,120.53c0-0.88,0.32-1.63,0.95-2.26c0.63-0.63,1.4-0.95,2.3-0.95c0.88,0,1.63,0.32,2.26,0.95
			c0.63,0.63,0.95,1.39,0.95,2.26c0,0.9-0.32,1.66-0.95,2.3c-0.63,0.63-1.39,0.95-2.26,0.95c-0.92,0-1.69-0.32-2.31-0.96
			C523.98,122.17,523.66,121.41,523.66,120.53z"/>
		<path class="st1" d="M535.56,114.87c0-2.45,0.57-5.12,1.71-8c1.14-2.89,2.77-5.23,4.9-7.02c2.12-1.79,4.18-2.69,6.18-2.69
			c1.82,0,3.31,0.77,4.48,2.31c1.17,1.54,1.76,3.63,1.76,6.26c0,3.18-0.65,6.2-1.96,9.06c-1.31,2.86-2.94,5.04-4.91,6.57
			c-1.97,1.52-3.9,2.28-5.8,2.28c-1.69,0-3.18-0.65-4.45-1.96C536.19,120.36,535.56,118.1,535.56,114.87z M538.83,118.39
			c0,1.1,0.29,2.04,0.86,2.81c0.57,0.78,1.36,1.16,2.36,1.16c2.73,0,4.98-2.59,6.75-7.77c1.76-5.18,2.65-9.14,2.65-11.88
			c0-1.41-0.27-2.46-0.81-3.17c-0.54-0.7-1.35-1.06-2.43-1.06c-2.55,0-4.75,2.4-6.6,7.21C539.75,110.51,538.83,114.74,538.83,118.39
			z"/>
		<path class="st1" d="M557,105.26h-1.35c0.86-2.29,1.93-4.23,3.23-5.85c1.29-1.61,2.57-2.42,3.84-2.42c0.88,0,1.53,0.35,1.96,1.05
			c0.43,0.7,0.64,1.77,0.64,3.2c0,1.78-0.47,4.31-1.4,7.59c0.12-0.2,0.46-0.94,1-2.2c1.5-3.41,2.82-5.87,3.96-7.38
			c1.14-1.51,2.27-2.26,3.41-2.26c0.71,0,1.28,0.22,1.71,0.67c0.43,0.45,0.64,0.99,0.64,1.62c0,0.61-0.18,1.11-0.53,1.5
			c-0.36,0.39-0.78,0.58-1.27,0.58c-0.55,0-1.11-0.34-1.68-1.01c-0.22-0.26-0.45-0.4-0.67-0.4c-1.02,0-2.58,2.46-4.7,7.36
			c-2.12,4.91-3.84,9.52-5.17,13.85l-0.68,2.2h-3.64l4.93-16.22c0.93-3.1,1.39-5.2,1.39-6.3c0-0.59-0.08-1.03-0.23-1.32
			c-0.15-0.29-0.38-0.43-0.69-0.43c-0.67,0-1.52,0.72-2.53,2.17C558.15,102.73,557.43,104.06,557,105.26z"/>
		<path class="st1" d="M577.4,115.54c-1.33-0.73-2.32-1.69-2.98-2.86c-0.66-1.17-0.99-2.58-0.99-4.21c0-2.98,1.06-5.64,3.18-7.97
			c2.12-2.34,4.52-3.5,7.19-3.5c0.84,0,1.62,0.13,2.34,0.4c0.72,0.27,1.38,0.67,1.98,1.22c1.37-1.12,2.5-1.68,3.4-1.68
			c0.73,0,1.34,0.21,1.81,0.63c0.47,0.42,0.7,0.94,0.7,1.58c0,0.98-0.47,1.47-1.41,1.47c-0.53,0-1.05-0.35-1.56-1.04
			c-0.33-0.45-0.65-0.67-0.98-0.67c-0.35,0-0.7,0.26-1.07,0.77c0.82,1.35,1.22,2.95,1.22,4.8c0,3.53-1.03,6.32-3.09,8.36
			c-2.08,2.04-4.61,3.25-7.59,3.64c-4.43,0.57-6.64,1.76-6.64,3.56c0,0.57,0.25,1.04,0.76,1.41c0.51,0.37,1.58,0.73,3.21,1.07
			c2.83,0.63,5.15,1.21,6.94,1.72c1.8,0.51,3.13,1.26,4,2.25c0.87,0.99,1.3,2.16,1.3,3.51c0,2.08-1.06,3.91-3.18,5.49
			c-2.12,1.57-5.14,2.36-9.06,2.36c-3.69,0-6.57-0.6-8.63-1.81c-2.06-1.2-3.09-2.7-3.09-4.5c0-1.33,0.5-2.44,1.5-3.35
			c1-0.91,1.86-1.36,2.57-1.36c0.71,0,1.07,0.26,1.07,0.8c0,0.29-0.24,0.68-0.73,1.19c-0.84,0.9-1.25,1.78-1.25,2.63
			c0,1.33,0.67,2.5,2.02,3.52c1.35,1.02,3.41,1.53,6.18,1.53c2.98,0,5.24-0.51,6.78-1.53c1.54-1.02,2.31-2.22,2.31-3.59
			c0-1.08-0.54-1.96-1.62-2.64c-1.08-0.67-3.43-1.43-7.04-2.27c-3.14-0.73-5.09-1.5-5.85-2.3c-0.78-0.78-1.16-1.62-1.16-2.54
			c0-1.29,0.65-2.51,1.96-3.66C573.2,116.8,575.04,115.99,577.4,115.54z M576.76,111.23c0,1.14,0.32,2.06,0.96,2.75
			c0.64,0.69,1.44,1.04,2.4,1.04c1.12,0,2.13-0.45,3.01-1.35c0.89-0.9,1.75-2.56,2.6-4.99c0.85-2.43,1.27-4.5,1.27-6.21
			c0-1.41-0.25-2.46-0.75-3.17c-0.5-0.7-1.25-1.06-2.25-1.06c-1.8,0-3.45,1.49-4.97,4.45C577.52,105.68,576.76,108.52,576.76,111.23
			z"/>
	</g>
</g>
<ellipse transform="matrix(0.9895 -0.1445 0.1445 0.9895 -13.8576 17.2851)" class="st2" cx="112.03" cy="104.01" rx="97.48" ry="97.48"/>
<linearGradient id="SVGID_1_" gradientUnits="userSpaceOnUse" x1="72.4003" y1="15.0391" x2="129.6439" y2="143.6103">
	<stop  offset="0" style="stop-color:#EE3626"/>
	<stop  offset="0.0449" style="stop-color:#E33326"/>
	<stop  offset="0.249" style="stop-color:#C72D25"/>
	<stop  offset="0.4664" style="stop-color:#B42824"/>
	<stop  offset="0.7041" style="stop-color:#AA2623"/>
	<stop  offset="1" style="stop-color:#A72523"/>
</linearGradient>
<path class="st3" d="M87.11,96.45c23.89-23.89,56.69-37.49,90.5-37.49c7.36,0,14.68,0.65,21.87,1.9
	C183.55,28.72,150.41,6.62,112.1,6.62c-53.83,0-97.48,43.64-97.48,97.48c0,30.18,13.72,57.15,35.25,75.03
	C51.8,148.12,65.06,118.49,87.11,96.45z"/>
<g>
	<g>
		<path class="st4" d="M114.46,17.04c0.88,0.01,1.58,0.38,1.56,1.38c-0.02,1-0.73,1.34-1.61,1.32l-3.23-0.05
			c-0.88-0.01-1.58-0.38-1.56-1.38c0.02-1,0.73-1.34,1.61-1.32L114.46,17.04z"/>
		<path class="st4" d="M124.67,17.91c0.87,0.11,1.53,0.55,1.4,1.54c-0.13,0.99-0.87,1.25-1.74,1.14l-3.2-0.41
			c-0.87-0.11-1.53-0.55-1.4-1.54c0.12-0.99,0.87-1.25,1.74-1.14L124.67,17.91z"/>
		<path class="st4" d="M134.75,20c0.85,0.21,1.45,0.73,1.21,1.69c-0.24,0.97-1.01,1.14-1.87,0.93l-3.13-0.78
			c-0.85-0.21-1.45-0.73-1.21-1.69c0.24-0.97,1.01-1.14,1.87-0.93L134.75,20z"/>
		<path class="st4" d="M144.52,23.27c0.82,0.31,1.36,0.89,1,1.83c-0.36,0.93-1.14,1.01-1.96,0.7l-3.02-1.15
			c-0.82-0.31-1.36-0.89-1-1.83c0.36-0.93,1.14-1.01,1.96-0.7L144.52,23.27z"/>
		<path class="st4" d="M153.84,27.68c0.78,0.41,1.24,1.05,0.78,1.93c-0.46,0.88-1.25,0.87-2.03,0.46l-2.86-1.5
			c-0.78-0.41-1.24-1.05-0.78-1.93c0.46-0.88,1.25-0.87,2.03-0.46L153.84,27.68z"/>
		<path class="st4" d="M162.56,33.16c0.73,0.5,1.11,1.19,0.54,2.01c-0.57,0.82-1.35,0.71-2.07,0.22l-2.66-1.83
			c-0.73-0.5-1.11-1.19-0.54-2.01c0.57-0.82,1.35-0.71,2.07-0.22L162.56,33.16z"/>
		<path class="st4" d="M170.57,39.63c0.66,0.58,0.96,1.31,0.3,2.06c-0.66,0.75-1.42,0.55-2.08-0.03l-2.43-2.13
			c-0.66-0.58-0.96-1.31-0.3-2.06c0.66-0.75,1.42-0.55,2.08,0.03L170.57,39.63z"/>
		<path class="st4" d="M177.77,47c0.59,0.65,0.8,1.41,0.06,2.08c-0.74,0.67-1.48,0.38-2.06-0.27l-2.16-2.4
			c-0.59-0.65-0.8-1.41-0.06-2.08c0.74-0.67,1.48-0.38,2.06,0.27L177.77,47z"/>
		<path class="st4" d="M184.05,55.16c0.51,0.72,0.63,1.5-0.19,2.07c-0.81,0.58-1.51,0.2-2.02-0.51l-1.86-2.64
			c-0.51-0.72-0.63-1.5,0.19-2.07c0.81-0.58,1.51-0.2,2.02,0.51L184.05,55.16z"/>
		<path class="st4" d="M189.33,64.01c0.42,0.78,0.45,1.56-0.43,2.04c-0.88,0.48-1.52,0.02-1.94-0.75l-1.54-2.84
			c-0.42-0.77-0.45-1.56,0.43-2.04c0.88-0.48,1.52-0.02,1.94,0.75L189.33,64.01z"/>
		<path class="st4" d="M193.52,73.41c0.32,0.82,0.26,1.6-0.67,1.97c-0.93,0.37-1.52-0.16-1.84-0.97l-1.19-3
			c-0.33-0.82-0.26-1.6,0.67-1.97c0.93-0.37,1.52,0.16,1.84,0.97L193.52,73.41z"/>
		<path class="st4" d="M196.56,83.26c0.23,0.85,0.07,1.62-0.9,1.88c-0.96,0.26-1.49-0.34-1.71-1.19l-0.83-3.12
			c-0.23-0.85-0.07-1.62,0.9-1.88c0.96-0.25,1.49,0.34,1.71,1.19L196.56,83.26z"/>
		<path class="st4" d="M198.42,93.4c0.12,0.87-0.13,1.62-1.12,1.76c-0.99,0.14-1.43-0.51-1.56-1.38l-0.45-3.2
			c-0.12-0.87,0.13-1.62,1.12-1.76c0.99-0.14,1.44,0.51,1.56,1.38L198.42,93.4z"/>
		<path class="st4" d="M199.06,103.67c0.02,0.88-0.32,1.59-1.31,1.61c-1,0.02-1.37-0.67-1.39-1.55l-0.07-3.23
			c-0.02-0.88,0.32-1.59,1.31-1.62c1-0.02,1.37,0.67,1.39,1.55L199.06,103.67z"/>
		<path class="st4" d="M198.5,113.95c-0.08,0.88-0.5,1.55-1.49,1.45c-0.99-0.09-1.28-0.83-1.19-1.71l0.3-3.22
			c0.08-0.88,0.5-1.54,1.49-1.45c0.99,0.09,1.28,0.83,1.19,1.71L198.5,113.95z"/>
		<path class="st4" d="M196.74,124.11c-0.19,0.86-0.68,1.47-1.65,1.26s-1.17-0.97-0.98-1.83l0.68-3.16
			c0.19-0.86,0.68-1.47,1.66-1.26c0.98,0.21,1.17,0.97,0.98,1.83L196.74,124.11z"/>
		<path class="st4" d="M193.78,133.97c-0.29,0.83-0.85,1.38-1.79,1.06c-0.94-0.33-1.05-1.11-0.76-1.94l1.05-3.05
			c0.29-0.83,0.85-1.38,1.79-1.06c0.94,0.33,1.05,1.11,0.76,1.94L193.78,133.97z"/>
		<path class="st4" d="M189.66,143.42c-0.38,0.79-1.01,1.27-1.91,0.84c-0.9-0.44-0.91-1.22-0.52-2.02l1.41-2.91
			c0.38-0.79,1.01-1.27,1.91-0.84c0.9,0.44,0.91,1.22,0.52,2.02L189.66,143.42z"/>
		<path class="st4" d="M184.46,152.32c-0.48,0.74-1.15,1.14-1.99,0.61c-0.84-0.54-0.76-1.32-0.28-2.06l1.74-2.72
			c0.48-0.74,1.15-1.14,1.99-0.61c0.84,0.54,0.76,1.32,0.28,2.06L184.46,152.32z"/>
		<path class="st4" d="M178.25,160.53c-0.56,0.68-1.28,1-2.05,0.37c-0.77-0.63-0.6-1.4-0.04-2.08l2.05-2.5
			c0.56-0.68,1.28-1,2.05-0.37c0.77,0.63,0.6,1.4,0.04,2.08L178.25,160.53z"/>
		<path class="st4" d="M171.11,167.95c-0.64,0.61-1.39,0.84-2.08,0.12c-0.69-0.72-0.43-1.46,0.21-2.07l2.33-2.24
			c0.64-0.61,1.39-0.84,2.08-0.12c0.69,0.72,0.43,1.46-0.21,2.07L171.11,167.95z"/>
		<path class="st4" d="M163.15,174.49c-0.7,0.53-1.48,0.67-2.08-0.12c-0.6-0.8-0.25-1.5,0.45-2.03l2.58-1.95
			c0.7-0.53,1.48-0.67,2.08,0.12c0.6,0.8,0.25,1.5-0.45,2.03L163.15,174.49z"/>
		<path class="st4" d="M154.48,180.04c-0.76,0.44-1.55,0.5-2.05-0.37s-0.07-1.52,0.69-1.97l2.79-1.63c0.76-0.45,1.55-0.5,2.05,0.37
			c0.5,0.86,0.07,1.52-0.69,1.96L154.48,180.04z"/>
		<path class="st4" d="M145.2,184.53c-0.81,0.35-1.59,0.31-1.99-0.61c-0.4-0.92,0.11-1.52,0.92-1.87l2.96-1.29
			c0.81-0.35,1.59-0.31,1.99,0.61c0.4,0.91-0.11,1.52-0.92,1.87L145.2,184.53z"/>
		<path class="st4" d="M135.46,187.89c-0.84,0.25-1.62,0.12-1.91-0.84c-0.29-0.96,0.29-1.5,1.13-1.75l3.09-0.93
			c0.84-0.25,1.62-0.12,1.91,0.84c0.29,0.96-0.29,1.5-1.13,1.75L135.46,187.89z"/>
		<path class="st4" d="M125.38,190.06c-0.87,0.15-1.62-0.08-1.79-1.06c-0.17-0.98,0.46-1.45,1.33-1.6l3.18-0.55
			c0.87-0.15,1.62,0.08,1.79,1.06c0.17,0.98-0.46,1.45-1.33,1.6L125.38,190.06z"/>
		<path class="st4" d="M115.13,191.02c-0.88,0.05-1.6-0.27-1.66-1.26c-0.05-1,0.63-1.39,1.51-1.43l3.22-0.17
			c0.88-0.05,1.6,0.27,1.65,1.26c0.05,1-0.63,1.39-1.51,1.43L115.13,191.02z"/>
		<path class="st4" d="M104.84,190.79c-0.88-0.06-1.56-0.45-1.5-1.45c0.06-1,0.79-1.3,1.67-1.25l3.22,0.2
			c0.88,0.05,1.56,0.45,1.5,1.45c-0.06,1-0.79,1.3-1.67,1.25L104.84,190.79z"/>
		<path class="st4" d="M94.64,189.34c-0.87-0.16-1.5-0.63-1.32-1.62c0.18-0.98,0.94-1.2,1.8-1.04l3.18,0.58
			c0.87,0.16,1.5,0.63,1.32,1.62c-0.18,0.98-0.94,1.2-1.8,1.04L94.64,189.34z"/>
		<path class="st4" d="M84.69,186.7c-0.84-0.26-1.41-0.81-1.11-1.76c0.3-0.95,1.07-1.08,1.91-0.82l3.08,0.96
			c0.84,0.26,1.41,0.81,1.11,1.76c-0.3,0.95-1.07,1.08-1.91,0.82L84.69,186.7z"/>
		<path class="st4" d="M75.11,182.88c-0.8-0.36-1.3-0.97-0.9-1.88c0.41-0.91,1.19-0.95,2-0.58l2.95,1.32
			c0.81,0.36,1.3,0.97,0.9,1.88c-0.41,0.91-1.19,0.95-2,0.59L75.11,182.88z"/>
		<path class="st4" d="M66.05,177.96c-0.76-0.45-1.18-1.12-0.67-1.97c0.51-0.86,1.3-0.8,2.05-0.35l2.77,1.66
			c0.76,0.45,1.18,1.12,0.67,1.97c-0.51,0.86-1.3,0.8-2.05,0.35L66.05,177.96z"/>
		<path class="st4" d="M57.65,172.01c-0.7-0.54-1.04-1.25-0.43-2.04c0.61-0.79,1.38-0.64,2.08-0.1l2.56,1.97
			c0.7,0.54,1.04,1.25,0.43,2.04c-0.61,0.79-1.38,0.64-2.08,0.1L57.65,172.01z"/>
		<path class="st4" d="M50,165.11c-0.63-0.62-0.89-1.36-0.19-2.07c0.7-0.71,1.45-0.47,2.08,0.14l2.31,2.26
			c0.63,0.62,0.89,1.36,0.19,2.07c-0.7,0.71-1.45,0.47-2.08-0.14L50,165.11z"/>
		<path class="st4" d="M43.22,157.36c-0.55-0.69-0.72-1.46,0.06-2.08c0.78-0.63,1.49-0.3,2.05,0.39l2.03,2.51
			c0.55,0.69,0.72,1.46-0.06,2.08c-0.78,0.62-1.49,0.3-2.05-0.39L43.22,157.36z"/>
		<path class="st4" d="M37.4,148.86c-0.47-0.75-0.54-1.53,0.3-2.06c0.85-0.53,1.52-0.12,1.99,0.62l1.72,2.74
			c0.47,0.75,0.54,1.53-0.3,2.06c-0.85,0.53-1.52,0.12-1.99-0.62L37.4,148.86z"/>
		<path class="st4" d="M32.62,139.74c-0.38-0.8-0.36-1.58,0.54-2.01c0.9-0.43,1.52,0.06,1.9,0.86l1.38,2.92
			c0.38,0.8,0.36,1.58-0.54,2.01c-0.9,0.43-1.52-0.06-1.9-0.86L32.62,139.74z"/>
		<path class="st4" d="M28.95,130.1c-0.28-0.84-0.17-1.61,0.78-1.93c0.95-0.32,1.5,0.24,1.78,1.08l1.02,3.06
			c0.28,0.84,0.17,1.62-0.78,1.93c-0.95,0.32-1.5-0.24-1.78-1.08L28.95,130.1z"/>
		<path class="st4" d="M26.47,120.1c-0.18-0.86,0.03-1.62,1-1.83c0.98-0.2,1.46,0.42,1.64,1.28l0.65,3.16
			c0.18,0.86-0.03,1.62-1,1.83c-0.98,0.2-1.46-0.42-1.64-1.28L26.47,120.1z"/>
		<path class="st4" d="M25.18,109.89c-0.07-0.88,0.22-1.61,1.21-1.69c0.99-0.08,1.41,0.59,1.48,1.47l0.27,3.22
			c0.07,0.88-0.22,1.61-1.21,1.69c-0.99,0.08-1.41-0.59-1.48-1.47L25.18,109.89z"/>
		<path class="st4" d="M25.1,99.59c0.03-0.88,0.4-1.57,1.4-1.54c1,0.03,1.33,0.75,1.3,1.63l-0.1,3.23c-0.03,0.88-0.4,1.57-1.4,1.54
			c-1-0.03-1.33-0.75-1.3-1.63L25.1,99.59z"/>
		<path class="st4" d="M26.22,89.35c0.13-0.87,0.58-1.52,1.57-1.37c0.99,0.15,1.23,0.9,1.1,1.77l-0.48,3.19
			c-0.13,0.87-0.59,1.51-1.57,1.37c-0.99-0.15-1.23-0.9-1.1-1.77L26.22,89.35z"/>
		<path class="st4" d="M28.55,79.32c0.23-0.85,0.76-1.43,1.72-1.17c0.96,0.27,1.12,1.04,0.88,1.89l-0.86,3.11
			c-0.23,0.85-0.76,1.43-1.72,1.17c-0.96-0.27-1.12-1.04-0.88-1.89L28.55,79.32z"/>
		<path class="st4" d="M32.05,69.62c0.33-0.82,0.93-1.33,1.85-0.96c0.92,0.38,0.98,1.16,0.65,1.98l-1.22,2.99
			c-0.33,0.82-0.93,1.33-1.85,0.96c-0.92-0.38-0.98-1.16-0.65-1.98L32.05,69.62z"/>
		<path class="st4" d="M36.69,60.42c0.43-0.77,1.08-1.21,1.95-0.73c0.87,0.48,0.84,1.27,0.41,2.04l-1.57,2.82
			c-0.43,0.77-1.08,1.21-1.95,0.73c-0.87-0.49-0.84-1.27-0.41-2.04L36.69,60.42z"/>
		<path class="st4" d="M42.37,51.84c0.52-0.71,1.21-1.08,2.02-0.5c0.81,0.58,0.68,1.36,0.17,2.08l-1.89,2.62
			c-0.52,0.71-1.21,1.08-2.02,0.5c-0.81-0.58-0.68-1.36-0.17-2.08L42.37,51.84z"/>
		<path class="st4" d="M49.03,43.97c0.6-0.65,1.33-0.93,2.07-0.25c0.73,0.68,0.52,1.43-0.08,2.08l-2.18,2.38
			c-0.6,0.65-1.33,0.93-2.07,0.25c-0.73-0.68-0.52-1.43,0.08-2.08L49.03,43.97z"/>
		<path class="st4" d="M56.56,36.96c0.67-0.57,1.43-0.77,2.08-0.01c0.65,0.76,0.35,1.48-0.32,2.06l-2.45,2.1
			c-0.67,0.57-1.43,0.77-2.08,0.01c-0.65-0.76-0.35-1.48,0.32-2.06L56.56,36.96z"/>
		<path class="st4" d="M64.87,30.87c0.73-0.49,1.51-0.59,2.07,0.24c0.56,0.83,0.17,1.51-0.56,2l-2.68,1.8
			c-0.73,0.49-1.51,0.59-2.07-0.24c-0.56-0.83-0.17-1.51,0.56-2.01L64.87,30.87z"/>
		<path class="st4" d="M73.84,25.8c0.78-0.4,1.57-0.41,2.03,0.48c0.45,0.89-0.01,1.52-0.8,1.93l-2.87,1.47
			c-0.78,0.4-1.57,0.41-2.03-0.48c-0.46-0.89,0.01-1.52,0.79-1.93L73.84,25.8z"/>
		<path class="st4" d="M83.35,21.83c0.83-0.31,1.61-0.22,1.95,0.72c0.35,0.94-0.19,1.51-1.02,1.82l-3.03,1.12
			c-0.83,0.31-1.61,0.22-1.96-0.72c-0.35-0.94,0.19-1.51,1.02-1.82L83.35,21.83z"/>
		<path class="st4" d="M93.26,19.03c0.86-0.2,1.62-0.03,1.86,0.94c0.23,0.97-0.37,1.48-1.23,1.68l-3.14,0.75
			c-0.86,0.21-1.62,0.03-1.86-0.94c-0.23-0.97,0.37-1.48,1.23-1.68L93.26,19.03z"/>
		<path class="st4" d="M103.44,17.42c0.88-0.1,1.62,0.17,1.73,1.16c0.12,0.99-0.54,1.42-1.42,1.53l-3.21,0.37
			c-0.88,0.1-1.62-0.17-1.73-1.16c-0.12-0.99,0.54-1.42,1.42-1.52L103.44,17.42z"/>
	</g>
	<g>
		<g>
			<path class="st4" d="M168.57,129.18c-1.7,3.22-4.06,6.74-7.06,10.57c-3.01,3.83-6.76,7.21-11.26,10.16
				c-4.5,2.95-9.33,4.42-14.49,4.42c-4.5,0-8.05-1.09-10.66-3.28c-2.61-2.19-3.92-5.07-3.92-8.66c0-2.79,0.76-6.59,2.28-11.39
				l6.65-21.96c1.88-5.95,2.83-10.06,2.83-12.3c0-1.34-0.41-2.55-1.23-3.65c-0.82-1.09-1.96-1.64-3.42-1.64
				c-3.28,0-7.29,2.76-12.03,8.29c-4.74,5.53-9.56,13-14.45,22.42c-4.89,9.42-9.13,19.72-12.71,30.9H67.4l16.5-53.41
				c1.46-5.35,2.19-8.45,2.19-9.3c0-0.73-0.18-1.47-0.55-2.23c-0.36-0.76-1.06-1.14-2.1-1.14c-2.37,0-4.63,1.49-6.79,4.47
				c-2.16,2.98-4,6.23-5.51,9.75h-7.66c2.31-6.5,5.86-12.37,10.66-17.59c4.8-5.23,10.91-7.84,18.32-7.84
				c4.74,0,8.28,1.28,10.62,3.83c2.34,2.55,3.51,5.25,3.51,8.11c0,1.58-0.33,3.98-1,7.2c-0.67,3.22-1.43,6.23-2.28,9.02l-3.19,9.39
				c7.53-11.61,14.61-20.76,21.24-27.48c6.62-6.71,13.97-10.07,22.05-10.07c4.68,0,8.08,1.35,10.21,4.06
				c2.13,2.7,3.19,5.63,3.19,8.8c0,1.94-0.73,5.62-2.19,11.03l-9.57,31.72c-1.09,3.95-1.64,6.71-1.64,8.29
				c0,0.61,0.2,1.18,0.59,1.73c0.39,0.55,0.93,0.82,1.6,0.82c1.7,0,3.87-1.2,6.52-3.6c2.64-2.4,5.09-5.54,7.34-9.43H168.57z"/>
		</g>
		<path class="st4" d="M113.5,55.19c0,7.42-6.01,13.43-13.43,13.43c-7.42,0-13.43-6.01-13.43-13.43c0-7.42,6.01-13.43,13.43-13.43
			C107.48,41.76,113.5,47.77,113.5,55.19z"/>
	</g>
</g>
</svg>
